<svg width="143" height="46" viewBox="0 0 143 46" fill="none" xmlns="http://www.w3.org/2000/svg">
<path d="M20.0338 33.12C19.5464 34.6173 18.7177 36.9567 18.1328 38.0329C17.2067 38.2668 14.3795 38.9219 11.991 38.9219C3.65581 38.9219 0 33.4007 0 28.3007C0 21.5631 5.41059 17.0713 12.9172 17.0713C15.6468 17.0713 17.8891 17.7731 18.864 17.9603C19.1077 19.7851 19.3514 21.0952 19.5464 22.8264L18.5227 23.0603C17.6454 19.6447 15.6469 18.2878 12.0398 18.2878C6.43422 18.2878 3.46083 22.8264 3.46083 27.6924C3.46083 33.6815 7.16538 37.7989 12.2348 37.7989C15.6468 37.7989 17.4504 36.0209 19.1564 32.8393L20.0338 33.12Z" fill="white"/>
<path d="M25.0978 27.9938C26.1203 26.4261 27.5324 24.6279 29.1392 24.6279C30.2591 24.6279 31.0869 25.4578 31.0869 26.1956C31.0869 26.8411 30.6487 27.4405 30.0157 27.7632C29.6261 27.9016 29.334 27.9016 29.0905 27.7171C28.6036 27.256 28.2141 27.0716 27.6785 27.0716C26.802 27.0716 25.7308 28.0399 25.0004 29.792V35.6016C25.0004 37.6765 25.1465 37.8609 27.7272 38.0914V38.9214H20.0338V38.0914C22.1276 37.907 22.3223 37.7226 22.3223 35.6016V29.0543C22.3223 26.9794 22.1763 26.8411 20.2286 26.5644V25.8728C21.8841 25.6423 23.3449 25.2273 24.9517 24.5818V28.0399H25.0978V27.9938Z" fill="white"/>
<path d="M46.976 25.3378C45.232 25.5601 44.893 25.827 44.021 27.5613C43.1975 29.1623 42.1802 31.6971 39.855 36.7667C37.6267 41.6585 36.9001 43.3928 36.4156 45.0382C36.2703 45.6163 35.8343 45.7498 35.3499 45.7498C34.4295 45.7498 33.4607 45.0382 33.4607 44.2822C33.4607 43.793 33.7513 43.5262 34.3326 43.1704C35.3499 42.5479 36.0281 41.7919 36.8032 40.4578C37.4329 39.3905 37.7236 38.7679 37.8204 38.3676C37.9658 37.9229 37.9658 37.5227 37.772 36.9891C36.4641 33.5204 34.9624 29.8293 33.9451 27.6503C33.2669 25.9604 32.9278 25.5601 31.087 25.3378V24.5818H37.8204V25.3378C36.2703 25.5601 36.125 25.8714 36.561 27.0277L39.6128 34.7211C40.5332 32.631 41.9864 29.0288 42.6646 27.1166C43.0522 25.9604 42.81 25.6046 40.9207 25.3823V24.6263H46.9275V25.3378H46.976Z" fill="white"/>
<path d="M59.4108 30.7966C59.4108 36.2957 55.8669 38.9214 52.8917 38.9214C48.779 38.9214 46.2852 35.1563 46.2852 31.3911C46.2852 25.793 50.1353 23.2168 52.8917 23.2168C56.6106 23.1673 59.4108 26.5361 59.4108 30.7966ZM49.0853 30.2517C49.0853 34.5618 50.7479 37.7324 53.198 37.7324C55.0793 37.7324 56.6106 36.1471 56.6106 31.4902C56.6106 27.5269 55.2106 24.2572 52.5854 24.2572C50.7479 24.3068 49.0853 26.437 49.0853 30.2517Z" fill="white"/>
<path d="M72.7868 23.3255C72.2402 21.3871 71.4203 19.3166 68.6874 19.3166C66.2733 19.3166 65.2257 20.9907 65.2257 22.6647C65.2257 24.8674 66.7288 25.9246 69.1885 27.1581C71.6481 28.3476 74.6088 29.8013 74.6088 33.1935C74.6088 36.3653 71.8303 38.9204 67.6398 38.9204C66.3644 38.9204 65.3624 38.6561 64.588 38.4799C63.8137 38.2156 63.3582 37.9953 63.0394 37.8631C62.8116 37.2464 62.4017 34.6032 62.174 33.1935L63.0849 32.9732C63.586 34.8234 64.998 37.8631 68.2319 37.8631C70.6005 37.8631 71.9669 36.4534 71.9669 34.2507C71.9669 32.004 70.2361 30.9467 67.9131 29.7573C65.909 28.7441 62.7661 27.2022 62.7661 23.8101C62.7661 20.9025 65.1802 18.4355 69.234 18.4355C70.6916 18.4355 71.9669 18.788 73.1967 19.1404C73.3334 20.2417 73.47 21.4312 73.7433 23.3255H72.7868Z" fill="white"/>
<path d="M86.7479 38.9214C86.2381 38.9214 85.4733 38.6241 85.1164 38.2773C84.6576 37.7819 84.4537 37.336 84.3007 36.7415C82.9242 37.6828 81.2417 38.9214 80.1711 38.9214C77.6729 38.9214 75.9905 36.8901 75.9905 34.7598C75.9905 33.0753 76.9082 32.0349 78.8455 31.3909C80.9358 30.6973 83.485 29.8055 84.3007 29.1614V28.5669C84.3007 26.1393 83.1281 24.7026 81.3437 24.7026C80.6299 24.7026 80.1201 24.9503 79.7632 25.3962C79.3044 25.8421 78.9985 26.5852 78.6926 27.6256C78.5396 28.1706 78.1828 28.4183 77.6729 28.4183C77.0611 28.4183 76.1434 27.7247 76.1434 26.932C76.1434 26.4366 76.6023 26.0403 77.2651 25.5944C78.2337 24.9008 80.528 23.5631 82.5163 23.2163C83.587 23.2163 84.6066 23.5136 85.3714 24.1576C86.595 25.1485 86.9518 26.5357 86.9518 28.3192V34.6607C86.9518 36.1965 87.5636 36.692 88.1754 36.692C88.5833 36.692 89.0931 36.5433 89.45 36.2956L89.8069 37.1874L86.7479 38.9214ZM84.1988 30.3505C83.485 30.7468 81.8026 31.4404 81.0378 31.7872C79.6613 32.3817 78.8965 33.0258 78.8965 34.2644C78.8965 36.0479 80.2731 36.8901 81.3947 36.8901C82.3124 36.8406 83.536 36.2956 84.1988 35.6516V30.3505Z" fill="white"/>
<path d="M102.932 25.4198C101.194 25.6526 100.904 25.9319 100.035 27.8408C98.924 30.2618 97.1854 34.1726 95.3503 38.9214H94.4326C92.9355 35.1037 91.3901 31.4257 89.8447 27.7011C89.072 25.8388 88.8305 25.606 87.0436 25.3733V24.5818H93.8531V25.3733C92.0662 25.606 92.0179 25.8388 92.5492 27.2355C93.4185 29.4703 94.7224 32.8224 95.6883 35.1503C96.8474 32.4965 97.9099 29.5634 98.6343 27.5149C99.1172 25.9785 98.924 25.606 97.0406 25.4198V24.6283H102.932V25.4198Z" fill="white"/>
<path d="M114.527 35.5915C112.379 38.2753 109.982 38.9214 108.933 38.9214C104.689 38.9214 102.242 35.4921 102.242 31.6652C102.242 29.3294 103.091 27.242 104.489 25.7013C105.887 24.1109 107.735 23.2163 109.533 23.2163C112.379 23.2163 114.676 25.751 114.676 28.3851C114.676 29.0809 114.527 29.3294 113.877 29.4785C113.278 29.5779 108.983 29.9257 104.938 30.0748C104.988 34.6969 107.635 36.6352 110.032 36.6352C111.38 36.6352 112.729 36.0885 113.927 34.9454L114.527 35.5915ZM105.088 28.5839C106.986 28.5839 108.883 28.5342 110.881 28.4845C111.48 28.4845 111.68 28.2857 111.68 27.7887C111.73 25.9995 110.531 24.3594 108.684 24.3594C107.136 24.4091 105.637 25.8504 105.088 28.5839Z" fill="white"/>
<path d="M102.932 19.4071C102.932 19.4071 103.227 9.80165 114.974 3.38242C126.721 -3.03681 139.893 0.102523 142.547 9.23938C145.201 18.3762 135.715 28.1691 126.721 31.3552C126.131 31.6364 125.934 30.7461 126.524 30.6056C127.065 30.4181 140.384 25.4514 140.876 13.5032C141.367 1.60191 126.671 1.32077 126.671 1.32077C126.671 1.32077 118.464 1.36762 112.713 5.67835C106.913 9.98907 105.046 13.6907 103.768 19.2665C103.67 19.6882 103.522 19.7819 103.325 19.7819C103.129 19.7819 102.932 19.6882 102.932 19.4071Z" fill="white"/>
<path d="M124.348 12.6331C124.348 13.9651 123.571 15.0229 122.621 15.0229C121.671 15.0229 120.894 13.9651 120.894 12.6331C120.894 11.301 121.671 10.2432 122.621 10.2432C123.571 10.2432 124.348 11.3402 124.348 12.6331Z" fill="white"/>
<path d="M112.909 13.7423L134.761 17.8954C134.761 17.8954 135.56 18.0886 135.372 19.0061C135.137 19.972 134.291 19.5856 134.057 19.5373C133.822 19.5373 127.383 18.1852 127.383 18.1852C127.383 18.1852 125.927 18.2334 125.692 19.9237C125.457 21.6139 124.564 31.1274 124.564 31.1274C124.564 31.1274 124.752 32.0933 123.295 32.0933C121.838 32.0933 122.12 30.8377 122.12 30.8377L120.146 17.5091C120.146 17.5091 120.193 16.6398 118.689 16.3501C117.186 16.0603 112.486 15.1428 112.486 15.1428C112.486 15.1428 111.828 15.0462 111.922 14.2252C111.969 13.356 112.909 13.7423 112.909 13.7423Z" fill="white"/>
</svg>
