<svg width="203" height="39" viewBox="0 0 203 39" fill="none" xmlns="http://www.w3.org/2000/svg">
<path d="M16.7205 6.07495C14.3357 6.07495 13.6585 7.12384 13.6585 9.42557V13.2424H20.0474L19.4144 19.4192H13.6585V38.1535H6.03305V19.4192H0.910156V13.2424H6.03305V9.52755C6.03305 3.29248 8.57978 0.000129833 15.6311 0.000129833C17.1073 -0.0038513 18.5823 0.0837279 20.0474 0.262352V6.08952L16.7205 6.07495Z" fill="white"/>
<path d="M20.5315 24.911C20.5315 17.9475 23.8584 12.7176 30.8362 12.7176C32.349 12.6324 33.8522 13.0049 35.146 13.7855C36.4397 14.5662 37.4627 15.7181 38.0789 17.088V13.2421H45.4394V38.1532H38.0789V34.3801C37.461 35.7427 36.4347 36.8844 35.1392 37.6505C33.8437 38.4166 32.3415 38.7701 30.8362 38.6631C23.8584 38.6631 20.5315 33.4332 20.5315 26.4843V24.911ZM28.1422 26.5863C28.1422 30.3011 29.5113 32.7631 33.059 32.7631C36.1799 32.7631 37.7697 30.5051 37.7697 26.9359V24.4302C37.7697 20.8757 36.1799 18.6031 33.059 18.6031C29.5113 18.6031 28.1422 21.0651 28.1422 24.7799V26.5863Z" fill="white"/>
<path d="M61.2665 12.7179C63.8292 12.5932 66.3768 13.173 68.627 14.3932L66.934 19.7251C65.3458 18.9806 63.6126 18.5879 61.8553 18.5742C57.7334 18.5742 55.9669 20.9342 55.9669 24.9549V26.4117C55.9669 30.4471 57.7629 32.7925 61.8553 32.7925C63.6135 32.786 65.3482 32.3929 66.934 31.6416L68.627 36.988C66.3726 38.1961 63.8272 38.7704 61.2665 38.6488C52.3308 38.6488 48.2679 33.8997 48.2679 26.2515V25.1006C48.2384 17.4816 52.3014 12.7179 61.2665 12.7179Z" fill="white"/>
<path d="M69.5391 26.6305V24.4307C69.5391 17.3798 73.6168 12.7764 81.9194 12.7764C89.7362 12.7764 93.1809 17.4818 93.1809 24.4307V28.4077H77.1498C77.3117 31.8166 78.8427 33.3317 83.0382 33.3317C85.8011 33.358 88.5439 32.8636 91.12 31.8749L92.4891 37.0465C89.3925 38.3152 86.0653 38.94 82.7143 38.8821C73.131 38.7218 69.5391 33.9581 69.5391 26.6305ZM77.1498 23.3964H86.2915V22.7554C86.2915 20.0458 85.1875 17.8897 81.8752 17.8897C78.563 17.8897 77.1498 20.0458 77.1498 23.3964Z" fill="white"/>
<path d="M121.417 26.4845C121.417 33.4334 118.031 38.6633 111.112 38.6633C109.573 38.7676 108.036 38.416 106.699 37.6533C105.362 36.8905 104.285 35.7511 103.605 34.3803V38.1534H96.3471V0.728396L103.958 0V16.6948C104.638 15.4341 105.666 14.3907 106.922 13.6865C108.178 12.9823 109.611 12.6463 111.053 12.7178C118.031 12.7178 121.358 17.9477 121.358 24.9111L121.417 26.4845ZM113.791 24.7655C113.791 21.2546 112.422 18.6469 108.772 18.6469C105.651 18.6469 103.958 20.8467 103.958 24.4013V27.0089C103.958 30.5781 105.651 32.8361 108.772 32.8361C112.422 32.8361 113.791 30.2139 113.791 26.703V24.7655Z" fill="white"/>
<path d="M123.948 26.3241V25.0712C123.948 17.8893 128.07 12.7177 136.475 12.7177C144.881 12.7177 149.003 17.8893 149.003 25.0712V26.3241C149.003 33.4915 144.881 38.6631 136.475 38.6631C128.07 38.6631 123.948 33.5061 123.948 26.3241ZM141.392 24.5468C141.392 21.2399 140.023 18.6322 136.475 18.6322C132.928 18.6322 131.558 21.2399 131.558 24.5468V26.8485C131.558 30.1409 132.942 32.7631 136.475 32.7631C140.008 32.7631 141.392 30.1409 141.392 26.8485V24.5468Z" fill="white"/>
<path d="M151.548 26.3241V25.0712C151.548 17.8893 155.67 12.7177 164.076 12.7177C172.482 12.7177 176.604 17.8893 176.604 25.0712V26.3241C176.604 33.4915 172.482 38.6631 164.076 38.6631C155.67 38.6631 151.548 33.5061 151.548 26.3241ZM168.993 24.5468C168.993 21.2399 167.624 18.6322 164.076 18.6322C160.528 18.6322 159.159 21.2399 159.159 24.5468V26.8485C159.159 30.1409 160.528 32.7631 164.076 32.7631C167.624 32.7631 168.993 30.1409 168.993 26.8485V24.5468Z" fill="white"/>
<path d="M187.072 25.1151L194.58 13.2422H202.676L194.801 25.5376L203 38.1534H194.904L187.072 25.96V38.1534H179.461V0.728396L187.072 0V25.1151Z" fill="white"/>
</svg>
