<svg width="162" height="52" viewBox="0 0 162 52" fill="none" xmlns="http://www.w3.org/2000/svg">
<path d="M19.8811 0H21.3166C26.3002 0.105471 31.2025 2.05668 34.7236 5.51084C33.4235 6.80286 32.0963 8.04214 30.8234 9.33415C28.8462 7.59389 26.4627 6.24914 23.8625 5.77452C20.0165 4.98349 15.8725 5.69541 12.6494 7.83119C9.12839 10.0724 6.74492 13.8694 6.23031 17.93C5.66152 21.9379 6.82617 26.1567 9.50757 29.2681C12.0806 32.3004 16.0079 34.1989 20.0707 34.3307C23.8625 34.5416 27.8169 33.4078 30.5796 30.8238C32.7464 29.0044 33.7485 26.2358 34.0735 23.5463C29.5775 23.5463 25.0814 23.5727 20.5853 23.5463V18.1146H39.5176C40.4927 23.9418 39.0842 30.5074 34.534 34.6735C31.5005 37.6266 27.3023 39.3669 23.0229 39.7097C18.8789 40.1052 14.5995 39.3405 10.916 37.3893C6.50115 35.0954 2.98012 31.2193 1.24669 26.6577C-0.3784 22.4652 -0.405485 17.7191 1.11127 13.5002C2.4926 9.65056 5.14691 6.24914 8.5596 3.87605C11.8369 1.52932 15.8183 0.237309 19.8811 0Z" fill="white"/>
<path d="M128.492 1.37036H134.288V39.0234C132.365 39.0234 130.415 39.0497 128.492 38.997C128.519 26.4724 128.492 13.9214 128.492 1.37036Z" fill="white"/>
<path d="M52.4102 14.4223C55.9854 13.7631 59.8586 14.5014 62.8108 16.5844C65.4922 18.4301 67.3611 21.3306 67.9299 24.4947C68.6611 28.1598 67.7403 32.1677 65.3026 35.0681C62.6754 38.3114 58.3689 40.0516 54.1707 39.7879C50.3247 39.577 46.587 37.7049 44.3119 34.6463C41.7388 31.2712 41.1158 26.6305 42.5242 22.6753C43.9327 18.4301 47.9141 15.1869 52.4102 14.4223ZM53.2228 19.4321C51.7602 19.8013 50.4059 20.6187 49.4309 21.7788C46.8037 24.8375 46.9662 29.821 49.8642 32.6687C51.5164 34.3035 54.0082 35.0681 56.3104 34.6199C58.4501 34.2507 60.319 32.8533 61.3482 31.0075C63.1358 27.8698 62.6212 23.5455 59.8857 21.0933C58.1251 19.5112 55.5521 18.852 53.2228 19.4321Z" fill="white"/>
<path d="M81.1191 14.4224C85.2089 13.6577 89.6779 14.7651 92.7385 17.5601C97.7221 21.9108 98.2638 30.0584 94.0115 35.0682C91.4384 38.2324 87.2674 39.9726 83.1505 39.788C79.2232 39.6826 75.35 37.7841 73.0207 34.6464C70.3935 31.1922 69.8247 26.446 71.3144 22.4118C72.8041 18.2984 76.7043 15.1607 81.1191 14.4224ZM81.9317 19.4322C80.4691 19.8014 79.1148 20.6188 78.1398 21.7526C75.5396 24.7585 75.648 29.6629 78.4377 32.5369C80.0899 34.2508 82.663 35.0946 85.0464 34.62C87.159 34.2245 89.055 32.8534 90.0842 31.0076C91.8447 27.8435 91.3301 23.5192 88.5674 21.067C86.8069 19.485 84.2339 18.8521 81.9317 19.4322Z" fill="white"/>
<path d="M105.469 15.9515C108.583 14.0531 112.727 13.5257 116.086 15.1605C117.142 15.6088 118.009 16.3734 118.848 17.1381C118.876 16.4261 118.848 15.6879 118.876 14.9496C120.69 14.9759 122.505 14.9496 124.347 14.9759V38.2322C124.32 41.7391 123.399 45.4569 120.799 48.0146C117.955 50.8359 113.594 51.7061 109.667 51.126C105.469 50.5195 101.812 47.54 100.187 43.7694C101.812 43.0047 103.518 42.3983 105.198 41.6864C106.146 43.8485 108.069 45.6942 110.479 46.1161C112.89 46.538 115.68 45.9579 117.25 44.0067C118.93 42.0028 118.93 39.2605 118.848 36.8083C117.603 37.9949 116.167 39.0496 114.434 39.4451C110.669 40.4734 106.525 39.2078 103.627 36.7292C100.702 34.2507 98.9682 30.4274 99.1307 26.6304C99.2119 22.3325 101.704 18.1928 105.469 15.9515ZM111.075 19.3266C109.423 19.5903 107.879 20.4868 106.823 21.726C104.277 24.6792 104.277 29.399 106.85 32.2995C108.312 34.0134 110.669 34.9626 112.944 34.7253C115.084 34.5144 117.061 33.196 118.117 31.3766C119.905 28.2916 119.607 24.0991 117.196 21.4096C115.707 19.7485 113.323 18.9311 111.075 19.3266Z" fill="white"/>
<path d="M141.247 17.2964C144.497 14.3432 149.507 13.3412 153.679 14.8969C157.633 16.3471 160.152 20.0123 161.425 23.7828C155.547 26.1559 149.697 28.5026 143.82 30.8757C144.632 32.3787 145.878 33.7498 147.557 34.3035C149.914 35.1209 152.731 34.8309 154.708 33.3016C155.493 32.7215 156.116 31.9568 156.712 31.2185C158.202 32.1941 159.691 33.1434 161.181 34.119C159.068 37.204 155.52 39.3661 151.701 39.7089C147.476 40.2099 142.98 38.6278 140.244 35.411C135.748 30.3484 136.182 21.858 141.247 17.2964ZM144.145 22.1744C143.224 23.4664 142.845 25.0485 142.872 26.6042C146.799 25.0221 150.726 23.4401 154.654 21.8316C154.004 20.355 152.433 19.4585 150.835 19.2212C148.262 18.773 145.58 20.1177 144.145 22.1744Z" fill="white"/>
</svg>
