<svg width="82" height="18" viewBox="0 0 82 18" fill="none" xmlns="http://www.w3.org/2000/svg">
<path d="M0.296 0.112L2.726 0.112L2.726 13L0.296 13L0.296 0.112ZM7.24934 5.332H7.39334C7.66934 4.888 8.04134 4.54 8.50934 4.288C8.97734 4.024 9.51134 3.892 10.1113 3.892C10.6633 3.892 11.1493 3.982 11.5693 4.162C11.9893 4.342 12.3313 4.6 12.5953 4.936C12.8713 5.26 13.0753 5.656 13.2073 6.124C13.3513 6.58 13.4233 7.09 13.4233 7.654L13.4233 13L11.0653 13L11.0653 7.942C11.0653 7.306 10.9213 6.838 10.6333 6.538C10.3573 6.226 9.94934 6.07 9.40934 6.07C9.08534 6.07 8.79734 6.142 8.54534 6.286C8.30534 6.418 8.09534 6.604 7.91534 6.844C7.74734 7.072 7.61534 7.348 7.51934 7.672C7.43534 7.984 7.39334 8.32 7.39334 8.68L7.39334 13L5.03534 13L5.03534 4.18L7.24934 4.18L7.24934 5.332ZM18.7754 13.288C18.1994 13.288 17.6834 13.216 17.2274 13.072C16.7834 12.928 16.3934 12.742 16.0574 12.514C15.7334 12.274 15.4574 12.004 15.2294 11.704C15.0014 11.392 14.8274 11.08 14.7074 10.768L16.8134 9.868C17.0174 10.324 17.2874 10.666 17.6234 10.894C17.9714 11.11 18.3554 11.218 18.7754 11.218C19.2074 11.218 19.5494 11.14 19.8014 10.984C20.0534 10.828 20.1794 10.642 20.1794 10.426C20.1794 10.186 20.0714 9.994 19.8554 9.85C19.6514 9.694 19.2914 9.556 18.7754 9.436L17.5334 9.166C17.2574 9.106 16.9694 9.01 16.6694 8.878C16.3814 8.746 16.1174 8.578 15.8774 8.374C15.6374 8.17 15.4394 7.924 15.2834 7.636C15.1274 7.348 15.0494 7.012 15.0494 6.628C15.0494 6.196 15.1394 5.812 15.3194 5.476C15.5114 5.14 15.7694 4.858 16.0934 4.63C16.4174 4.39 16.7954 4.21 17.2274 4.09C17.6714 3.958 18.1454 3.892 18.6494 3.892C19.4894 3.892 20.2394 4.06 20.8994 4.396C21.5594 4.72 22.0454 5.242 22.3574 5.962L20.3234 6.79C20.1554 6.442 19.9094 6.19 19.5854 6.034C19.2614 5.878 18.9374 5.8 18.6134 5.8C18.2774 5.8 17.9834 5.872 17.7314 6.016C17.4794 6.148 17.3534 6.322 17.3534 6.538C17.3534 6.742 17.4554 6.904 17.6594 7.024C17.8754 7.144 18.1634 7.252 18.5234 7.348L19.8734 7.672C20.7734 7.888 21.4394 8.236 21.8714 8.716C22.3154 9.184 22.5374 9.742 22.5374 10.39C22.5374 10.774 22.4474 11.14 22.2674 11.488C22.0874 11.836 21.8294 12.148 21.4934 12.424C21.1694 12.688 20.7734 12.898 20.3054 13.054C19.8494 13.21 19.3394 13.288 18.7754 13.288ZM24.8687 6.196L23.3207 6.196L23.3207 4.18L24.8687 4.18L24.8687 1.48L27.2267 1.48L27.2267 4.18L29.3867 4.18L29.3867 6.196L27.2267 6.196L27.2267 9.616C27.2267 9.82 27.2447 10.012 27.2807 10.192C27.3287 10.36 27.4127 10.504 27.5327 10.624C27.7007 10.816 27.9407 10.912 28.2527 10.912C28.4567 10.912 28.6187 10.894 28.7387 10.858C28.8587 10.81 28.9727 10.75 29.0807 10.678L29.7467 12.748C29.4707 12.88 29.1707 12.976 28.8467 13.036C28.5347 13.108 28.1867 13.144 27.8027 13.144C27.3587 13.144 26.9567 13.078 26.5967 12.946C26.2487 12.802 25.9547 12.61 25.7147 12.37C25.1507 11.83 24.8687 11.062 24.8687 10.066L24.8687 6.196ZM36.3815 12.064H36.2375C35.9615 12.4 35.6255 12.688 35.2295 12.928C34.8455 13.168 34.3475 13.288 33.7355 13.288C33.2795 13.288 32.8475 13.21 32.4395 13.054C32.0435 12.91 31.6955 12.706 31.3955 12.442C31.0955 12.178 30.8615 11.86 30.6935 11.488C30.5255 11.116 30.4415 10.708 30.4415 10.264C30.4415 9.808 30.5315 9.4 30.7115 9.04C30.8915 8.668 31.1435 8.35 31.4675 8.086C31.7915 7.822 32.1695 7.624 32.6015 7.492C33.0455 7.348 33.5255 7.276 34.0415 7.276C34.6175 7.276 35.0915 7.324 35.4635 7.42C35.8355 7.504 36.1415 7.594 36.3815 7.69V7.42C36.3815 6.952 36.1955 6.568 35.8235 6.268C35.4515 5.956 34.9895 5.8 34.4375 5.8C33.6215 5.8 32.9315 6.142 32.3675 6.826L30.6575 5.656C31.5935 4.48 32.8715 3.892 34.4915 3.892C35.8595 3.892 36.9035 4.216 37.6235 4.864C38.3435 5.5 38.7035 6.448 38.7035 7.708L38.7035 13L36.3815 13V12.064ZM36.3815 9.418C36.1055 9.286 35.8175 9.184 35.5175 9.112C35.2295 9.028 34.9115 8.986 34.5635 8.986C33.9995 8.986 33.5615 9.112 33.2495 9.364C32.9495 9.604 32.7995 9.904 32.7995 10.264C32.7995 10.624 32.9435 10.912 33.2315 11.128C33.5315 11.344 33.8735 11.452 34.2575 11.452C34.5695 11.452 34.8575 11.398 35.1215 11.29C35.3855 11.17 35.6075 11.02 35.7875 10.84C35.9795 10.648 36.1235 10.432 36.2195 10.192C36.3275 9.94 36.3815 9.682 36.3815 9.418ZM44.5584 17.176C43.9344 17.176 43.3764 17.092 42.8844 16.924C42.4044 16.768 41.9844 16.558 41.6244 16.294C41.2644 16.042 40.9644 15.76 40.7244 15.448C40.4844 15.136 40.3104 14.824 40.2024 14.512L42.4524 13.612C42.6204 14.08 42.8964 14.44 43.2804 14.692C43.6644 14.956 44.0904 15.088 44.5584 15.088C45.3024 15.088 45.8904 14.854 46.3224 14.386C46.7544 13.93 46.9704 13.288 46.9704 12.46V11.848H46.8264C46.5504 12.232 46.1844 12.538 45.7284 12.766C45.2844 12.982 44.7564 13.09 44.1444 13.09C43.6164 13.09 43.1004 12.982 42.5964 12.766C42.1044 12.55 41.6664 12.244 41.2824 11.848C40.8984 11.44 40.5864 10.954 40.3464 10.39C40.1064 9.826 39.9864 9.196 39.9864 8.5C39.9864 7.804 40.1064 7.174 40.3464 6.61C40.5864 6.034 40.8984 5.548 41.2824 5.152C41.6664 4.744 42.1044 4.432 42.5964 4.216C43.1004 4 43.6164 3.892 44.1444 3.892C44.7564 3.892 45.2844 4.006 45.7284 4.234C46.1844 4.45 46.5504 4.75 46.8264 5.134H46.9704V4.18L49.2204 4.18L49.2204 12.37C49.2204 13.114 49.1064 13.78 48.8784 14.368C48.6504 14.968 48.3324 15.472 47.9244 15.88C47.5164 16.3 47.0244 16.618 46.4484 16.834C45.8844 17.062 45.2544 17.176 44.5584 17.176ZM44.6484 10.966C44.9364 10.966 45.2184 10.912 45.4944 10.804C45.7824 10.696 46.0344 10.54 46.2504 10.336C46.4664 10.12 46.6404 9.862 46.7724 9.562C46.9044 9.25 46.9704 8.896 46.9704 8.5C46.9704 8.104 46.9044 7.75 46.7724 7.438C46.6404 7.126 46.4664 6.868 46.2504 6.664C46.0344 6.448 45.7824 6.286 45.4944 6.178C45.2184 6.07 44.9364 6.016 44.6484 6.016C44.3604 6.016 44.0784 6.07 43.8024 6.178C43.5264 6.286 43.2804 6.448 43.0644 6.664C42.8484 6.88 42.6744 7.144 42.5424 7.456C42.4104 7.756 42.3444 8.104 42.3444 8.5C42.3444 8.896 42.4104 9.25 42.5424 9.562C42.6744 9.862 42.8484 10.12 43.0644 10.336C43.2804 10.54 43.5264 10.696 43.8024 10.804C44.0784 10.912 44.3604 10.966 44.6484 10.966ZM51.2307 4.18L53.4447 4.18V5.404H53.5887C53.6967 5.188 53.8407 4.99 54.0207 4.81C54.2007 4.63 54.3987 4.474 54.6147 4.342C54.8427 4.21 55.0827 4.108 55.3347 4.036C55.5987 3.964 55.8567 3.928 56.1087 3.928C56.4207 3.928 56.6847 3.958 56.9007 4.018C57.1287 4.078 57.3207 4.156 57.4767 4.252L56.8467 6.394C56.7027 6.322 56.5407 6.268 56.3607 6.232C56.1927 6.184 55.9827 6.16 55.7307 6.16C55.4067 6.16 55.1127 6.226 54.8487 6.358C54.5847 6.478 54.3567 6.652 54.1647 6.88C53.9847 7.108 53.8407 7.378 53.7327 7.69C53.6367 7.99 53.5887 8.32 53.5887 8.68L53.5887 13L51.2307 13L51.2307 4.18ZM63.6452 12.064H63.5012C63.2252 12.4 62.8892 12.688 62.4932 12.928C62.1092 13.168 61.6112 13.288 60.9992 13.288C60.5432 13.288 60.1112 13.21 59.7032 13.054C59.3072 12.91 58.9592 12.706 58.6592 12.442C58.3592 12.178 58.1252 11.86 57.9572 11.488C57.7892 11.116 57.7052 10.708 57.7052 10.264C57.7052 9.808 57.7952 9.4 57.9752 9.04C58.1552 8.668 58.4072 8.35 58.7312 8.086C59.0552 7.822 59.4332 7.624 59.8652 7.492C60.3092 7.348 60.7892 7.276 61.3052 7.276C61.8812 7.276 62.3552 7.324 62.7272 7.42C63.0992 7.504 63.4052 7.594 63.6452 7.69V7.42C63.6452 6.952 63.4592 6.568 63.0872 6.268C62.7152 5.956 62.2532 5.8 61.7012 5.8C60.8852 5.8 60.1952 6.142 59.6312 6.826L57.9212 5.656C58.8572 4.48 60.1352 3.892 61.7552 3.892C63.1232 3.892 64.1672 4.216 64.8872 4.864C65.6072 5.5 65.9672 6.448 65.9672 7.708L65.9672 13L63.6452 13V12.064ZM63.6452 9.418C63.3692 9.286 63.0812 9.184 62.7812 9.112C62.4932 9.028 62.1752 8.986 61.8272 8.986C61.2632 8.986 60.8252 9.112 60.5132 9.364C60.2132 9.604 60.0632 9.904 60.0632 10.264C60.0632 10.624 60.2072 10.912 60.4952 11.128C60.7952 11.344 61.1372 11.452 61.5212 11.452C61.8332 11.452 62.1212 11.398 62.3852 11.29C62.6492 11.17 62.8712 11.02 63.0512 10.84C63.2432 10.648 63.3872 10.432 63.4832 10.192C63.5912 9.94 63.6452 9.682 63.6452 9.418ZM67.842 4.18L70.056 4.18V5.332H70.2C70.476 4.9 70.848 4.552 71.316 4.288C71.796 4.024 72.324 3.892 72.9 3.892C73.572 3.892 74.136 4.048 74.592 4.36C75.048 4.672 75.372 5.056 75.564 5.512C75.84 5.068 76.23 4.69 76.734 4.378C77.238 4.054 77.85 3.892 78.57 3.892C79.11 3.892 79.578 3.982 79.974 4.162C80.37 4.33 80.694 4.57 80.946 4.882C81.21 5.194 81.408 5.572 81.54 6.016C81.672 6.448 81.738 6.922 81.738 7.438L81.738 13L79.38 13L79.38 7.87C79.38 6.67 78.888 6.07 77.904 6.07C77.592 6.07 77.316 6.142 77.076 6.286C76.836 6.418 76.632 6.604 76.464 6.844C76.308 7.072 76.182 7.348 76.086 7.672C76.002 7.996 75.96 8.344 75.96 8.716V13L73.602 13L73.602 7.87C73.602 6.67 73.086 6.07 72.054 6.07C71.754 6.07 71.49 6.142 71.262 6.286C71.034 6.418 70.842 6.604 70.686 6.844C70.53 7.072 70.41 7.348 70.326 7.672C70.242 7.996 70.2 8.344 70.2 8.716V13L67.842 13L67.842 4.18Z" fill="white"/>
</svg>
