<svg width="133" height="27" viewBox="0 0 133 27" fill="none" xmlns="http://www.w3.org/2000/svg">
<path opacity="0.82" d="M8.88574 3.45874L13.2169 7.25846L8.88574 3.45874Z" fill="#06618D"/>
<path opacity="0.82" d="M7.67187 3.45874H4.66488C3.5614 3.45874 3.03724 4.69037 3.75451 5.42411L5.85113 7.25846H12.0306L7.67187 3.45874Z" fill="#06618D"/>
<path opacity="0.82" d="M21.5482 21.0161L22.9276 22.2216C23.7276 22.7719 24.9138 22.2478 24.9138 21.2782V18.5529L21.5482 15.6179V21.0161Z" fill="#06618D"/>
<path opacity="0.82" d="M21.5482 14.5437L24.9138 17.4787L21.5482 14.5437Z" fill="#06618D"/>
<path opacity="0.82" d="M1.2165 7.25879C0.11302 7.25879 -0.411135 8.54283 0.416478 9.22416L19.5619 26.0216C20.3343 26.7029 21.5758 26.1788 21.5758 25.183V22.0646L4.6373 7.25879H1.2165Z" fill="#06618D"/>
<path opacity="0.82" d="M13.2169 7.25879L21.5482 14.5438L13.2169 7.25879Z" fill="#06618D"/>
<path opacity="0.82" d="M13.2169 7.25879L21.5482 14.5438L13.2169 7.25879Z" fill="#06618D"/>
<path opacity="0.82" d="M12.0306 7.25879H5.85114L21.5482 21.0164V15.6182L12.0306 7.25879Z" fill="#06618D"/>
<path opacity="0.82" d="M12.0306 7.25879H5.85114L21.5482 21.0164V15.6182L12.0306 7.25879Z" fill="#06618D"/>
<path opacity="0.8" d="M27.4518 0H7.25805C6.43044 0 6.04422 0.969585 6.65114 1.49368L8.88569 3.43285H23.6724C24.362 3.43285 24.9138 3.95695 24.9138 4.61208V17.4787L26.8449 19.1821C27.4242 19.6799 28.3622 19.2869 28.3622 18.5531V0.864765C28.3622 0.393075 27.9484 0 27.4518 0Z" fill="url(#paint0_linear)"/>
<path opacity="0.82" d="M23.6724 3.45874H8.88574L13.2445 7.25846H20.362C21.0241 7.25846 21.5482 7.75636 21.5482 8.38528V14.5434L24.8863 17.4784V4.63796C24.9138 3.98284 24.3345 3.45874 23.6724 3.45874Z" fill="#06618D"/>
<path opacity="0.8" d="M23.6724 3.45874H8.88574L13.2445 7.25846H20.362C21.0241 7.25846 21.5482 7.75636 21.5482 8.38528V14.5434L24.8863 17.4784V4.63796C24.9138 3.98284 24.3345 3.45874 23.6724 3.45874Z" fill="url(#paint1_linear)"/>
<path opacity="0.82" d="M21.5482 8.3856C21.5482 7.75668 21.024 7.25879 20.3619 7.25879H13.2169L21.5482 14.5438V8.3856Z" fill="#06618D"/>
<path opacity="0.82" d="M21.5482 8.3856C21.5482 7.75668 21.024 7.25879 20.3619 7.25879H13.2169L21.5482 14.5438V8.3856Z" fill="#06618D"/>
<path opacity="0.8" d="M21.5482 8.3856C21.5482 7.75668 21.024 7.25879 20.3619 7.25879H13.2169L21.5482 14.5438V8.3856Z" fill="url(#paint2_linear)"/>
<path d="M40.1418 20.3352V3.38062C40.1418 3.22339 40.2522 3.14478 40.3901 3.14478H44.0592C44.2247 3.14478 44.3075 3.19719 44.3351 3.35442L49.4111 16.6666L54.294 3.35442C54.3492 3.19719 54.4595 3.14478 54.5699 3.14478H58.3217C58.4872 3.14478 58.57 3.2496 58.57 3.38062V20.3352C58.57 20.4925 58.4597 20.5711 58.3217 20.5711H55.8389C55.6734 20.5711 55.5906 20.4663 55.5906 20.3352L55.6734 6.47281L50.5422 20.3877C50.487 20.5449 50.3766 20.5973 50.2663 20.5973H48.4731C48.3076 20.5973 48.2249 20.5187 48.1973 20.3877L42.9833 6.47281L43.1213 20.3352C43.1213 20.4925 43.0109 20.5711 42.873 20.5711H40.3901C40.2522 20.5711 40.1418 20.4663 40.1418 20.3352Z" fill="white"/>
<path d="M59.977 17.4001C59.977 14.3603 63.5081 13.6004 68.1428 12.657C68.1428 10.6654 67.591 9.95788 65.7427 9.95788C63.9495 9.95788 63.3426 10.6392 63.1495 11.635C63.1219 11.8184 63.0116 11.8446 62.8736 11.8446L60.7218 11.7398C60.5287 11.7136 60.5011 11.5826 60.5011 11.4254C60.8322 9.30276 62.7081 8.12354 66.0186 8.12354C69.4945 8.12354 70.7635 9.45999 70.7635 12.5784V17.7146C70.7635 18.7104 71.0118 19.2869 71.9222 18.92C72.0877 18.8676 72.1981 18.9724 72.1981 19.1296V20.3351C72.1981 20.4661 72.1153 20.5709 71.9774 20.5971C71.4532 20.7281 70.9842 20.8068 70.5153 20.8068C69.0807 20.8068 68.4462 20.0992 68.3083 18.6841C67.3427 20.3351 65.6323 20.8592 64.1426 20.8592C61.5219 20.8592 59.977 19.4179 59.977 17.4001ZM68.1428 15.4085V14.4389C64.4461 15.0417 62.7081 15.8802 62.7081 17.2691C62.7081 18.029 63.315 18.8676 64.8047 18.8676C66.6807 18.8938 68.1428 17.6359 68.1428 15.4085Z" fill="white"/>
<path d="M72.8326 20.3351V8.70012C72.8326 8.54289 72.9429 8.46428 73.0809 8.46428H75.2878C75.4534 8.46428 75.5361 8.5691 75.5361 8.70012V10.1152C76.2258 8.85735 77.4948 8.28084 79.0397 8.25464C79.2328 8.25464 79.4535 8.25464 79.7293 8.28084C79.9225 8.28084 79.9776 8.38566 79.9776 8.51669L79.95 10.2724C79.95 10.4297 79.8397 10.5083 79.7018 10.4821C79.4811 10.4559 79.2604 10.4559 79.0121 10.4559C76.1982 10.4559 75.5913 12.2116 75.5913 15.1466V20.3089C75.5913 20.4662 75.4809 20.5448 75.343 20.5448H73.0809C72.9153 20.571 72.8326 20.4662 72.8326 20.3351Z" fill="white"/>
<path d="M92.6401 20.5711H89.9641C89.8262 20.5711 89.7158 20.5187 89.6331 20.4139L85.633 14.8584L83.3984 16.8762V20.309C83.3984 20.4663 83.2881 20.5449 83.1501 20.5449H80.888C80.7225 20.5449 80.6397 20.4401 80.6397 20.309V3.38062C80.6397 3.22339 80.7501 3.14478 80.888 3.14478H83.1501C83.3157 3.14478 83.3984 3.2496 83.3984 3.38062V13.784L89.1365 8.56921C89.2193 8.49059 89.3296 8.43818 89.44 8.43818H92.2539C92.4746 8.43818 92.5573 8.56921 92.3918 8.72644L87.5641 13.1027L92.8332 20.2828C92.9435 20.4401 92.8608 20.5711 92.6401 20.5711Z" fill="white"/>
<path d="M92.0608 14.4393C92.0608 10.6658 94.5436 8.07153 98.5713 8.07153C102.516 8.07153 104.447 10.692 104.447 14.5966C104.447 14.7538 104.337 14.8062 104.199 14.8062H94.9023C94.9023 17.2433 96.0885 18.9204 98.93 18.9204C99.8128 18.9204 101.027 18.6583 102.102 16.8764C102.185 16.7192 102.323 16.6668 102.461 16.7454L104.172 17.4005C104.365 17.4791 104.365 17.5839 104.282 17.715C103.289 19.5493 101.413 20.9382 98.5162 20.9382C94.2678 20.9382 92.0608 18.0294 92.0608 14.4393ZM101.661 12.9981C101.44 10.5086 99.7024 9.9845 98.4058 9.9845C96.4196 9.9845 95.2057 11.1637 94.985 12.9981H101.661Z" fill="white"/>
<path d="M106.792 16.7189V10.1939H104.696C104.53 10.1939 104.447 10.0891 104.447 9.95803V8.70019C104.447 8.54296 104.558 8.46435 104.696 8.46435H106.792V5.34595C106.792 5.18872 106.903 5.11011 107.041 5.11011H109.275C109.441 5.11011 109.523 5.21493 109.523 5.34595V8.43814H111.868C112.034 8.43814 112.117 8.54296 112.117 8.67399V9.95803C112.117 10.1153 112.006 10.1939 111.868 10.1939H109.523V16.1948C109.523 17.6885 109.744 18.7367 110.986 18.7367C111.261 18.7367 111.565 18.6843 111.924 18.5795C112.117 18.5271 112.199 18.6057 112.199 18.7891V20.3352C112.199 20.4924 112.144 20.5711 112.006 20.5711C111.51 20.6497 110.82 20.7545 110.048 20.7545C107.565 20.7807 106.792 19.3918 106.792 16.7189Z" fill="white"/>
<path d="M112.117 14.4393C112.117 10.6658 114.599 8.07153 118.627 8.07153C122.572 8.07153 124.503 10.692 124.503 14.5966C124.503 14.7538 124.393 14.8062 124.255 14.8062H114.986C114.986 17.2433 116.172 18.9204 119.013 18.9204C119.896 18.9204 121.11 18.6583 122.186 16.8764C122.269 16.7192 122.407 16.6668 122.544 16.7454L124.255 17.4005C124.448 17.4791 124.448 17.5839 124.365 17.715C123.372 19.5493 121.496 20.9382 118.6 20.9382C114.324 20.9382 112.117 18.0294 112.117 14.4393ZM121.717 12.9981C121.496 10.5086 119.758 9.9845 118.462 9.9845C116.475 9.9845 115.262 11.1637 115.041 12.9981H121.717Z" fill="white"/>
<path d="M125.855 20.3351V8.70012C125.855 8.54289 125.965 8.46428 126.103 8.46428H128.31C128.476 8.46428 128.558 8.5691 128.558 8.70012V10.1152C129.248 8.85735 130.517 8.28084 132.062 8.25464C132.255 8.25464 132.476 8.25464 132.752 8.28084C132.945 8.28084 133 8.38566 133 8.51669L132.972 10.2724C132.972 10.4297 132.862 10.5083 132.724 10.4821C132.503 10.4559 132.283 10.4559 132.034 10.4559C129.221 10.4559 128.614 12.2116 128.614 15.1466V20.3089C128.614 20.4662 128.503 20.5448 128.365 20.5448H126.103C125.965 20.571 125.855 20.4662 125.855 20.3351Z" fill="white"/>
<defs>
<linearGradient id="paint0_linear" x1="17.3648" y1="3.47168e-09" x2="17.3648" y2="19.4183" gradientUnits="userSpaceOnUse">
<stop stop-color="#22C1DC"/>
<stop offset="1" stop-color="#06618D"/>
</linearGradient>
<linearGradient id="paint1_linear" x1="16.8936" y1="-0.000317776" x2="16.8936" y2="19.4179" gradientUnits="userSpaceOnUse">
<stop stop-color="#22C1DC"/>
<stop offset="1" stop-color="#06618D"/>
</linearGradient>
<linearGradient id="paint2_linear" x1="17.3917" y1="2.82836e-06" x2="17.3917" y2="19.4183" gradientUnits="userSpaceOnUse">
<stop stop-color="#22C1DC"/>
<stop offset="1" stop-color="#06618D"/>
</linearGradient>
</defs>
</svg>
